<svg width="36" height="35" viewBox="0 0 36 35" fill="none" xmlns="http://www.w3.org/2000/svg">
<path d="M17.9753 2.8549C19.0199 2.85359 20.0614 2.97131 21.0795 3.2058C24.7884 4.02223 28.0177 6.2889 30.0487 9.50153C32.0798 12.7142 32.7442 16.6063 31.8941 20.3119L31.8561 20.4622C31.7442 20.8034 31.473 21.0734 31.124 21.1804C30.7251 21.3027 30.2914 21.1916 30.0001 20.8925C29.7089 20.5935 29.609 20.1566 29.7412 19.7605C31.0769 13.7875 27.7107 7.76477 21.9274 5.78031C16.1441 3.79584 9.79561 6.4851 7.19108 12.0227C4.58656 17.5603 6.55999 24.173 11.7719 27.3724C16.9838 30.5717 23.7652 29.3332 27.5132 24.4975L27.6399 24.3961C28.0368 24.1232 28.5729 24.1343 28.9605 24.4407C29.391 24.7812 29.5098 25.3849 29.2405 25.8635C25.1534 31.1523 17.9468 32.8913 11.9018 30.0476C5.8569 27.2039 2.59405 20.5397 4.05157 14.0139C5.50909 7.48803 11.2963 2.84998 17.9753 2.8549ZM22.2185 11.5019C22.4289 11.4264 22.659 11.4264 22.8694 11.5019C23.1501 11.5856 23.3853 11.779 23.5219 12.0384C23.6585 12.2977 23.685 12.6013 23.5954 12.8804L21.3673 19.8607C21.2786 20.1501 21.0749 20.3903 20.8041 20.5249L19.5524 21.1515L19.4042 21.1936C18.9076 21.2981 18.3931 21.0512 18.1697 20.5803C17.924 20.0624 18.1105 19.4423 18.6011 19.1464L19.4398 18.7329L20.8416 14.2464L16.4607 15.6249L14.458 22.0287L14.4042 22.1685C14.1754 22.6605 13.6134 22.9201 13.0811 22.7556L12.9181 22.691C12.7094 22.5882 12.5369 22.4211 12.4278 22.212C12.2914 21.9506 12.2652 21.6454 12.3552 21.3646L14.5331 14.3968C14.6459 14.0555 14.9162 13.7895 15.2591 13.6825L22.2185 11.5019Z" fill="white"/>
</svg>
