<svg width="32" height="31" viewBox="0 0 32 31" fill="none" xmlns="http://www.w3.org/2000/svg">
<path d="M12.2606 14.5756C12.7948 14.5756 13.2278 15.0055 13.2278 15.5358V16.7974H14.5099C14.8783 16.7578 15.2371 16.9306 15.4337 17.2424C15.6304 17.5541 15.6304 17.95 15.4337 18.2617C15.2371 18.5734 14.8783 18.7462 14.5099 18.7066H13.2278V19.9794C13.2217 20.5072 12.7923 20.9336 12.2606 20.9396C11.7196 20.9335 11.2934 20.5054 11.2935 19.9794V18.7066H10.0114C9.643 18.7462 9.28422 18.5734 9.08754 18.2617C8.89087 17.95 8.89087 17.5541 9.08754 17.2424C9.28422 16.9306 9.643 16.7578 10.0114 16.7974H11.2935V15.5358L11.3023 15.4055C11.3663 14.9369 11.771 14.5756 12.2606 14.5756ZM21.2577 19.2872C21.5319 19.0146 21.9437 18.9311 22.3036 19.0751C22.4193 19.1287 22.5256 19.2003 22.6185 19.2872C22.9882 19.6591 22.9856 20.2577 22.6126 20.6263C22.2396 20.995 21.6366 20.995 21.2637 20.6263C20.8907 20.2577 20.888 19.6591 21.2577 19.2872ZM19.4133 14.8213C19.6438 14.727 19.9026 14.727 20.1331 14.8213C20.2534 14.8726 20.3638 14.9444 20.4592 15.0334C20.6376 15.2116 20.7386 15.4521 20.7404 15.7033C20.7419 15.8293 20.719 15.9543 20.6729 16.0717C20.6285 16.1917 20.5551 16.2991 20.4592 16.3843C20.0814 16.7416 19.4875 16.7416 19.1097 16.3843C18.9218 16.2092 18.8153 15.9647 18.8153 15.7089C18.8153 15.453 18.9218 15.2086 19.1097 15.0334C19.1942 14.9417 19.2978 14.8694 19.4133 14.8213ZM28.6576 14.6253C28.4874 10.715 25.1753 7.72158 21.1837 7.74952C20.6947 7.75714 20.3035 8.15719 20.3099 8.6474C20.3162 9.13508 20.715 9.5364 21.2065 9.52116C24.3142 9.45893 26.7551 11.7068 26.8859 14.7002C26.8923 14.817 26.8936 14.9352 26.8897 15.0749V20.5854C26.9228 22.0344 26.3881 23.4073 25.3873 24.4525C24.3866 25.5003 23.0378 26.0933 21.5875 26.1251C21.4694 26.1276 21.35 26.1251 21.1798 26.12C17.6556 26.1797 14.1466 26.1797 10.6948 26.1213C7.68106 26.2508 5.17154 23.928 5.04073 20.9435C5.03565 20.8241 5.03438 20.7047 5.03692 20.5663V15.0545C4.97215 12.065 7.35086 9.58085 10.343 9.51735C10.4598 9.51354 10.5792 9.51735 10.7341 9.52116H16.6866C17.1755 9.52116 17.5731 9.12492 17.5731 8.6347V7.44726C17.5477 5.6083 16.0402 4.12368 14.2126 4.12368H14.1872H12.9299H12.9223C12.7356 4.12368 12.5591 4.05129 12.4245 3.91921C12.2873 3.78713 12.2111 3.60806 12.2099 3.41756C12.2048 2.93115 11.8085 2.53999 11.3247 2.53999H11.3145C10.8256 2.54507 10.4331 2.94639 10.4382 3.43534C10.4458 4.09828 10.71 4.72058 11.1837 5.18413C11.6587 5.65148 12.2835 5.86865 12.9401 5.89659H14.1936H14.2063C15.075 5.89659 15.79 6.60017 15.8001 7.45742V7.74952L10.7722 7.75079C10.6135 7.74444 10.456 7.7419 10.3011 7.74444C6.33613 7.8308 3.17892 11.1277 3.26528 15.0749V20.5485C3.26274 20.7047 3.26401 20.861 3.27036 21.0184C3.44435 24.9808 6.80095 28.086 10.7189 27.8917C12.422 27.9221 14.1555 27.9361 15.8967 27.9361C17.648 27.9361 19.4069 27.9221 21.157 27.8904C21.3157 27.8967 21.4732 27.8993 21.6294 27.8955C23.5497 27.8536 25.3391 27.0674 26.6675 25.6781C27.9959 24.2899 28.7046 22.4675 28.6614 20.5663V15.0964C28.6652 14.9402 28.6639 14.7828 28.6576 14.6253Z" fill="white"/>
</svg>
