<svg width="32" height="32" viewBox="0 0 32 32" fill="none" xmlns="http://www.w3.org/2000/svg">
<path d="M12.5 2.254C10.86 2.254 9.5 3.53 9.5 5.127C9.5 5.849 9.788 6.497 10.244 7H4.5C3.678 7 3 7.678 3 8.5V12.5C3 13.147 3.421 13.698 4 13.906V28.055C4 29.134 4.91 30 6 30H27C28.09 30 29 29.134 29 28.055V13.906C29.578 13.697 30 13.146 30 12.5V8.5C30 7.678 29.322 7 28.5 7H22.756C23.212 6.497 23.5 5.85 23.5 5.127C23.5 3.53 22.14 2.254 20.5 2.254H20.201C18.705 2.254 17.717 2.996 17.154 3.99C16.874 4.486 16.672 5.036 16.5 5.607C16.328 5.036 16.128 4.486 15.848 3.99C15.285 2.996 14.298 2.254 12.801 2.254H12.5ZM12.5 3.254H12.8C14.004 3.254 14.532 3.699 14.977 4.484C15.332 5.111 15.555 6.063 15.809 7H12.5C11.37 7 10.5 6.16 10.5 5.127C10.5 4.095 11.37 3.254 12.5 3.254ZM20.201 3.254H20.5C21.63 3.254 22.5 4.095 22.5 5.127C22.5 6.159 21.63 7 20.5 7H17.193C17.447 6.063 17.668 5.111 18.023 4.484C18.468 3.699 18.998 3.254 20.201 3.254ZM4.5 8H12.717C11.679 8.824 11 10.076 11 11.494C11 11.6266 11.0527 11.7538 11.1464 11.8476C11.2402 11.9413 11.3674 11.994 11.5 11.994C11.6326 11.994 11.7598 11.9413 11.8536 11.8476C11.9473 11.7538 12 11.6266 12 11.494C12 9.561 13.572 8 15.53 8H16V13H4.5C4.43389 13.0016 4.36813 12.9898 4.30673 12.9653C4.24532 12.9407 4.18954 12.904 4.14278 12.8572C4.09602 12.8105 4.05925 12.7547 4.03471 12.6933C4.01016 12.6319 3.99835 12.5661 4 12.5V8.5C4 8.214 4.214 8 4.5 8ZM17 8H17.47C19.429 8 21 9.56 21 11.494C21 11.6266 21.0527 11.7538 21.1464 11.8476C21.2402 11.9413 21.3674 11.994 21.5 11.994C21.6326 11.994 21.7598 11.9413 21.8536 11.8476C21.9473 11.7538 22 11.6266 22 11.494C22 10.076 21.319 8.824 20.281 8H28.5C28.786 8 29 8.214 29 8.5V12.5C29 12.786 28.786 13 28.5 13H17V8ZM5 14H16V29H6C5.427 29 5 28.576 5 28.055V14ZM17 14H28V28.055C28 28.576 27.573 29 27 29H17V14Z" fill="white"/>
</svg>
