<svg width="28" height="28" viewBox="0 0 28 28" fill="none" xmlns="http://www.w3.org/2000/svg">
<path d="M4.76495 0C2.17882 0 0.0535278 2.12529 0.0535278 4.71142V7.60993C0.0535278 10.1961 2.17883 12.3214 4.76495 12.3214H7.66346C10.2496 12.3214 12.3749 10.1961 12.3749 7.60993V4.71142C12.3749 2.12529 10.2496 0 7.66346 0H4.76495ZM4.76495 15.0594C2.17882 15.0594 0.0535278 17.1847 0.0535278 19.7709V22.6694C0.0535278 25.2555 2.17883 27.3808 4.76495 27.3808H7.66346C10.2496 27.3808 12.3749 25.2555 12.3749 22.6694V19.7709C12.3749 17.1847 10.2496 15.0594 7.66346 15.0594H4.76495ZM19.8244 15.0594C17.2383 15.0594 15.113 17.1847 15.113 19.7709V22.6694C15.113 25.2555 17.2383 27.3808 19.8244 27.3808H22.7229C25.309 27.3808 27.4343 25.2555 27.4343 22.6694V19.7709C27.4343 17.1847 25.309 15.0594 22.7229 15.0594H19.8244Z" fill="white"/>
<path d="M21.2737 0C20.9106 0 20.5623 0.144258 20.3056 0.401002C20.0488 0.657747 19.9046 1.00595 19.9046 1.36904V4.79164H16.482C16.1189 4.79164 15.7707 4.93589 15.514 5.19264C15.2572 5.44938 15.113 5.79758 15.113 6.16068C15.113 6.52377 15.2572 6.87201 15.514 7.12876C15.7707 7.3855 16.1189 7.52972 16.482 7.52972H19.9046V10.9523C19.9046 11.3154 20.0488 11.6636 20.3056 11.9204C20.5623 12.1771 20.9106 12.3214 21.2737 12.3214C21.6367 12.3214 21.985 12.1771 22.2417 11.9204C22.4985 11.6636 22.6427 11.3154 22.6427 10.9523V7.52972H26.0653C26.4284 7.52972 26.7766 7.3855 27.0333 7.12876C27.2901 6.87201 27.4343 6.52377 27.4343 6.16068C27.4343 5.79758 27.2901 5.44938 27.0333 5.19264C26.7766 4.93589 26.4284 4.79164 26.0653 4.79164H22.6427V1.36904C22.6427 1.00595 22.4985 0.657747 22.2417 0.401002C21.985 0.144258 21.6367 0 21.2737 0Z" fill="white"/>
</svg>
