<svg width="32" height="32" viewBox="0 0 32 32" fill="none" xmlns="http://www.w3.org/2000/svg">
<g clip-path="url(#clip0_39_2726)">
<path d="M20 7C19.9999 7.20381 20.0621 7.40277 20.1783 7.57024C20.2945 7.7377 20.459 7.86567 20.65 7.937L17 11.586V8C16.9999 7.80225 16.9412 7.60895 16.8314 7.44454C16.7215 7.28013 16.5653 7.15199 16.3826 7.07632C16.1999 7.00065 15.9989 6.98085 15.8049 7.01942C15.611 7.05798 15.4328 7.15319 15.293 7.293L8.29296 14.293C8.19745 14.3852 8.12127 14.4956 8.06886 14.6176C8.01645 14.7396 7.98886 14.8708 7.98771 15.0036C7.98655 15.1364 8.01186 15.2681 8.06214 15.391C8.11242 15.5139 8.18667 15.6255 8.28056 15.7194C8.37446 15.8133 8.48611 15.8875 8.60901 15.9378C8.7319 15.9881 8.86358 16.0134 8.99636 16.0123C9.12914 16.0111 9.26036 15.9835 9.38236 15.9311C9.50437 15.8787 9.61471 15.8025 9.70696 15.707L15 10.414V14C15 14.1978 15.0587 14.391 15.1686 14.5555C15.2784 14.7199 15.4346 14.848 15.6173 14.9237C15.8 14.9993 16.001 15.0192 16.195 14.9806C16.3889 14.942 16.5671 14.8468 16.707 14.707L22.063 9.351C22.1449 9.5708 22.3015 9.7548 22.5054 9.87081C22.7093 9.98683 22.9474 10.0275 23.1783 9.98565C23.4091 9.94382 23.6179 9.82218 23.7681 9.64201C23.9183 9.46183 24.0004 9.23458 24 9V7C24 6.73478 23.8946 6.48043 23.7071 6.29289C23.5195 6.10536 23.2652 6 23 6H21C20.7347 6 20.4804 6.10536 20.2929 6.29289C20.1053 6.48043 20 6.73478 20 7ZM9.99996 19C10.2652 19 10.5195 19.1054 10.7071 19.2929C10.8946 19.4804 11 19.7348 11 20V24C11 24.2652 10.8946 24.5196 10.7071 24.7071C10.5195 24.8946 10.2652 25 9.99996 25C9.73474 25 9.48039 24.8946 9.29285 24.7071C9.10532 24.5196 8.99996 24.2652 8.99996 24V20C8.99996 19.7348 9.10532 19.4804 9.29285 19.2929C9.48039 19.1054 9.73474 19 9.99996 19Z" fill="white"/>
<path d="M14 15C13.7348 15 13.4804 15.1054 13.2929 15.2929C13.1054 15.4804 13 15.7348 13 16V24C13 24.2652 13.1054 24.5196 13.2929 24.7071C13.4804 24.8946 13.7348 25 14 25C14.2652 25 14.5196 24.8946 14.7071 24.7071C14.8946 24.5196 15 24.2652 15 24V16C15 15.7348 14.8946 15.4804 14.7071 15.2929C14.5196 15.1054 14.2652 15 14 15ZM18 18C18.2652 18 18.5196 18.1054 18.7071 18.2929C18.8946 18.4804 19 18.7348 19 19V24C19 24.2652 18.8946 24.5196 18.7071 24.7071C18.5196 24.8946 18.2652 25 18 25C17.7348 25 17.4804 24.8946 17.2929 24.7071C17.1054 24.5196 17 24.2652 17 24V19C17 18.7348 17.1054 18.4804 17.2929 18.2929C17.4804 18.1054 17.7348 18 18 18ZM22 13C21.7348 13 21.4804 13.1054 21.2929 13.2929C21.1054 13.4804 21 13.7348 21 14V24C21 24.2652 21.1054 24.5196 21.2929 24.7071C21.4804 24.8946 21.7348 25 22 25C22.2652 25 22.5196 24.8946 22.7071 24.7071C22.8946 24.5196 23 24.2652 23 24V14C23 13.7348 22.8946 13.4804 22.7071 13.2929C22.5196 13.1054 22.2652 13 22 13Z" fill="white"/>
<path fill-rule="evenodd" clip-rule="evenodd" d="M8 0C6.67392 0 5.40215 0.526784 4.46447 1.46447C3.52678 2.40215 3 3.67392 3 5V27C3 28.3261 3.52678 29.5979 4.46447 30.5355C5.40215 31.4732 6.67392 32 8 32H24C25.3261 32 26.5979 31.4732 27.5355 30.5355C28.4732 29.5979 29 28.3261 29 27V5C29 3.67392 28.4732 2.40215 27.5355 1.46447C26.5979 0.526784 25.3261 0 24 0L8 0ZM5 5C5 4.20435 5.31607 3.44129 5.87868 2.87868C6.44129 2.31607 7.20435 2 8 2H24C24.7956 2 25.5587 2.31607 26.1213 2.87868C26.6839 3.44129 27 4.20435 27 5V27C27 27.7956 26.6839 28.5587 26.1213 29.1213C25.5587 29.6839 24.7956 30 24 30H8C7.20435 30 6.44129 29.6839 5.87868 29.1213C5.31607 28.5587 5 27.7956 5 27V5Z" fill="white"/>
</g>
<defs>
<clipPath id="clip0_39_2726">
<rect width="32" height="32" fill="white"/>
</clipPath>
</defs>
</svg>
