<svg width="32" height="32" viewBox="0 0 32 32" fill="none" xmlns="http://www.w3.org/2000/svg">
<path d="M28.4479 18.816C27.6799 18.08 27.2639 17.056 27.2639 16C27.2639 14.944 27.6799 13.952 28.4479 13.184C28.5759 13.056 28.7039 12.96 28.8639 12.832C29.0879 12.672 29.1519 12.384 29.0879 12.128C28.8319 11.2 28.4479 10.304 27.9999 9.47199C27.8719 9.24799 27.6159 9.11999 27.3599 9.15199C27.1359 9.18399 26.9759 9.18399 26.8159 9.18399C24.6079 9.18399 22.816 7.39199 22.816 5.21599C22.816 5.05599 22.816 4.86399 22.8479 4.67199C22.8799 4.41599 22.7519 4.15999 22.528 4.03199C21.6959 3.58399 20.7999 3.19999 19.8719 2.94399C19.6159 2.87999 19.3279 2.97599 19.1679 3.16799C19.0399 3.32799 18.9119 3.48799 18.8159 3.58399C18.0479 4.31999 17.0559 4.73599 15.9999 4.73599C14.9439 4.73599 13.9199 4.31999 13.184 3.58399C13.056 3.45599 12.9599 3.32799 12.8319 3.16799C12.6719 2.94399 12.384 2.87999 12.128 2.94399C11.2 3.23199 10.3039 3.58399 9.47195 4.03199C9.24795 4.15999 9.11995 4.41599 9.15195 4.67199C9.18395 4.89599 9.18395 5.05599 9.18395 5.21599C9.18395 7.42399 7.39195 9.18399 5.18395 9.18399C5.02395 9.18399 4.83195 9.18399 4.63995 9.15199C4.38395 9.11999 4.12795 9.24799 3.99995 9.47199C3.55195 10.304 3.16795 11.2 2.91195 12.128C2.84795 12.384 2.91195 12.672 3.13595 12.832C3.32795 12.96 3.45595 13.088 3.55195 13.184C5.11995 14.72 5.11995 17.248 3.55195 18.816C3.42395 18.944 3.29595 19.04 3.13595 19.168C2.91195 19.328 2.84795 19.616 2.91195 19.872C3.19995 20.8 3.55195 21.696 3.99995 22.528C4.12795 22.752 4.38395 22.88 4.63995 22.848C4.86395 22.816 5.02395 22.816 5.18395 22.816C7.39195 22.816 9.18395 24.608 9.18395 26.784C9.18395 26.944 9.18395 27.136 9.15195 27.328C9.11995 27.584 9.24795 27.84 9.47195 27.968C10.3039 28.416 11.2 28.8 12.128 29.056C12.384 29.12 12.6719 29.056 12.8319 28.832C12.9599 28.672 13.0879 28.512 13.184 28.416C13.952 27.68 14.9439 27.264 15.9999 27.264C17.0559 27.264 18.0799 27.68 18.8159 28.416C18.9439 28.544 19.0399 28.672 19.1679 28.832C19.2959 28.992 19.4879 29.088 19.6799 29.088C19.7439 29.088 19.8079 29.088 19.8719 29.056C20.7999 28.768 21.6959 28.416 22.528 27.968C22.7519 27.84 22.8799 27.584 22.8479 27.328C22.816 27.104 22.816 26.944 22.816 26.784C22.816 24.576 24.6079 22.816 26.8159 22.816C26.9759 22.816 27.1679 22.816 27.3599 22.848C27.6159 22.88 27.8719 22.752 27.9999 22.528C28.4479 21.696 28.8319 20.8 29.0879 19.872C29.1519 19.616 29.0879 19.328 28.8639 19.168C28.7039 19.04 28.5439 18.944 28.4479 18.816ZM27.0719 21.536H26.7839C23.8719 21.536 21.5039 23.904 21.5039 26.784V27.072C20.9919 27.328 20.4479 27.552 19.8719 27.744L19.6799 27.552C18.6879 26.56 17.3759 26.016 15.9679 26.016C14.5599 26.016 13.2479 26.56 12.2559 27.552L12.0639 27.744C11.5199 27.552 10.9759 27.328 10.4319 27.072V26.784C10.4319 23.872 8.06395 21.536 5.15195 21.536H4.86395C4.60795 21.024 4.38395 20.48 4.19195 19.904L4.38395 19.712C6.43195 17.664 6.43195 14.336 4.38395 12.256L4.19195 12.064C4.38395 11.52 4.60795 10.976 4.86395 10.432H5.15195C8.06395 10.432 10.4319 8.06399 10.4319 5.18399V4.89599C10.9439 4.63999 11.488 4.41599 12.0639 4.22399L12.2559 4.41599C13.2479 5.40799 14.5599 5.95199 15.9679 5.95199C17.3759 5.95199 18.6879 5.40799 19.6799 4.41599L19.8719 4.22399C20.4159 4.41599 20.9599 4.63999 21.5039 4.89599V5.18399C21.5039 8.09599 23.8719 10.432 26.7839 10.432H27.0719C27.3279 10.944 27.5519 11.488 27.7439 12.064L27.5519 12.256C26.5599 13.248 26.0159 14.56 26.0159 15.968C26.0159 17.376 26.5599 18.688 27.5519 19.68L27.7439 19.872C27.5519 20.48 27.3279 21.024 27.0719 21.536ZM15.9999 8.38399C11.808 8.38399 8.38395 11.808 8.38395 16C8.38395 20.192 11.808 23.616 15.9999 23.616C20.1919 23.616 23.6159 20.192 23.6159 16C23.6159 11.808 20.1919 8.38399 15.9999 8.38399ZM15.9999 22.336C12.5119 22.336 9.66395 19.488 9.66395 16C9.66395 12.512 12.5119 9.66399 15.9999 9.66399C19.4879 9.66399 22.336 12.512 22.336 16C22.336 19.488 19.4879 22.336 15.9999 22.336Z" fill="white"/>
</svg>
