<svg width="29" height="30" viewBox="0 0 29 30" fill="none" xmlns="http://www.w3.org/2000/svg">
<path d="M28.3493 27.5581C28.3493 28.8397 27.2867 29.8823 25.9805 29.8823H14.137C13.7647 29.8823 13.4602 29.5834 13.4602 29.2182C13.4602 28.853 13.7647 28.5542 14.137 28.5542H25.9805C26.5389 28.5542 26.9957 28.1059 26.9957 27.5581C26.9957 27.0102 26.5389 26.562 25.9805 26.562H14.137C13.7647 26.562 13.4602 26.2632 13.4602 25.898C13.4602 25.5327 13.7647 25.2339 14.137 25.2339H23.9265C23.6998 22.0398 21.8624 19.1213 19.0131 17.511L15.4973 15.5189H15.4939L15.4905 15.5155C15.4431 15.489 15.4025 15.4558 15.3653 15.4226C15.3552 15.4126 15.345 15.4026 15.3349 15.3894C15.3044 15.3595 15.2807 15.3263 15.257 15.2898C15.2524 15.2823 15.2467 15.2756 15.2401 15.2698L15.23 15.2499C15.2198 15.23 15.2096 15.2068 15.1995 15.1868C15.1927 15.1669 15.1826 15.147 15.1758 15.1304C15.169 15.1105 15.1657 15.0905 15.1623 15.0673C15.1589 15.0474 15.1521 15.0241 15.1521 15.0042C15.1487 14.9843 15.1521 14.9611 15.1521 14.9411V14.878L15.1623 14.815C15.1657 14.795 15.169 14.7718 15.1758 14.7519C15.1826 14.732 15.1893 14.712 15.1995 14.6954C15.2096 14.6722 15.2164 14.6523 15.23 14.6323L15.2401 14.6124C15.2469 14.6025 15.257 14.5925 15.2638 14.5825C15.2773 14.5626 15.2909 14.5427 15.3044 14.5261C15.3179 14.5095 15.3349 14.4929 15.3518 14.4763C15.3653 14.463 15.3822 14.4497 15.3958 14.4365C15.4161 14.4199 15.4364 14.4066 15.4601 14.39C15.4702 14.3833 15.477 14.3767 15.4871 14.37L19.0097 12.3779C21.8624 10.7609 23.6998 7.84243 23.9265 4.64835H14.137C13.7647 4.64835 13.4602 4.34953 13.4602 3.9843C13.4602 3.61907 13.7647 3.32025 14.137 3.32025H25.9805C26.5389 3.32025 26.9957 2.87202 26.9957 2.32418C26.9957 1.77633 26.5389 1.3281 25.9805 1.3281H14.137C13.7647 1.3281 13.4602 1.02928 13.4602 0.66405C13.4602 0.298823 13.7647 0 14.137 0H25.9805C27.2867 0 28.3493 1.04256 28.3493 2.32418C28.3493 3.60579 27.2867 4.64835 25.9805 4.64835H25.2801C25.0534 8.31723 22.9554 11.674 19.6899 13.5234L17.1825 14.9411L19.6899 16.3589C22.9554 18.2083 25.0534 21.565 25.2801 25.2339H25.9805C27.2867 25.2339 28.3493 26.2765 28.3493 27.5581ZM15.1657 10.7543C15.1724 10.7975 15.186 10.8373 15.2029 10.8771C15.2198 10.9203 15.2401 10.9568 15.2672 10.9934C15.2909 11.0299 15.3179 11.0631 15.3518 11.093C15.3822 11.1262 15.4161 11.1527 15.4533 11.176C15.4905 11.1992 15.5277 11.2224 15.5683 11.2391C15.6089 11.2557 15.6529 11.2689 15.6969 11.2756C15.8059 11.2975 15.9188 11.2923 16.0252 11.2604C16.1316 11.2285 16.2282 11.1709 16.306 11.093C16.3399 11.0631 16.3669 11.0299 16.3906 10.9934C16.4143 10.9568 16.438 10.9203 16.4549 10.8771C16.4718 10.8373 16.4854 10.7975 16.4921 10.7543C16.5145 10.6474 16.5092 10.5366 16.4767 10.4322C16.4442 10.3278 16.3855 10.233 16.306 10.1566C16.1504 10.0006 15.9169 9.93087 15.6969 9.97404C15.6529 9.98068 15.6089 9.99396 15.5683 10.0106C15.5277 10.0272 15.4905 10.0504 15.4533 10.0736C15.4161 10.0969 15.3822 10.1234 15.3518 10.1566C15.3179 10.1865 15.2909 10.2197 15.2672 10.2563C15.2401 10.2928 15.2198 10.3293 15.2029 10.3725C15.186 10.4123 15.1724 10.4522 15.1657 10.4953C15.1555 10.5385 15.1521 10.5816 15.1521 10.6248C15.1521 10.668 15.1555 10.7111 15.1657 10.7543ZM17.8085 11.7006C17.7915 11.6574 17.7679 11.6209 17.7442 11.5844C17.7205 11.5478 17.6934 11.5146 17.6596 11.4847C17.4092 11.2357 16.9557 11.2357 16.7053 11.4847C16.6258 11.5611 16.5672 11.6559 16.5346 11.7603C16.5021 11.8647 16.4968 11.9755 16.5192 12.0824C16.526 12.1256 16.5395 12.1654 16.5564 12.2086C16.5734 12.2484 16.5937 12.2849 16.6207 12.3215C16.6444 12.358 16.6715 12.3912 16.7053 12.4211C16.7677 12.483 16.842 12.5321 16.9239 12.5657C17.0058 12.5992 17.0937 12.6165 17.1825 12.6165C17.2712 12.6165 17.3591 12.5992 17.441 12.5657C17.5229 12.5321 17.5972 12.483 17.6596 12.4211C17.6934 12.3912 17.7205 12.358 17.7442 12.3215C17.7679 12.2849 17.7915 12.2484 17.8085 12.2086C17.8254 12.1654 17.8389 12.1256 17.8457 12.0824C17.8558 12.0392 17.8592 11.9961 17.8592 11.9529C17.8592 11.9097 17.8558 11.8666 17.8457 11.8234C17.8389 11.7803 17.8254 11.7404 17.8085 11.7006ZM16.4549 7.71626C16.438 7.6731 16.4143 7.63658 16.3906 7.60006C16.3669 7.56353 16.3399 7.53033 16.306 7.50045C16.1504 7.3444 15.9169 7.27467 15.6969 7.31783C15.6529 7.32447 15.6089 7.33776 15.5683 7.35436C15.5277 7.37096 15.4905 7.3942 15.4533 7.41744C15.4161 7.44068 15.3822 7.46725 15.3518 7.50045C15.3179 7.53033 15.2909 7.56353 15.2672 7.60006C15.2401 7.63658 15.2198 7.6731 15.2029 7.71626C15.186 7.75611 15.1724 7.79595 15.1657 7.83911C15.1555 7.88228 15.1521 7.92544 15.1521 7.9686C15.1521 8.01177 15.1555 8.05493 15.1657 8.09809C15.1724 8.14126 15.186 8.1811 15.2029 8.22426C15.2198 8.26411 15.2401 8.30063 15.2672 8.33715C15.2909 8.37367 15.3179 8.40688 15.3518 8.43676C15.3822 8.46996 15.4161 8.49652 15.4533 8.51976C15.4905 8.54301 15.5277 8.56625 15.5683 8.58285C15.6089 8.59945 15.6529 8.61273 15.6969 8.61937C15.8059 8.64134 15.9188 8.63614 16.0252 8.60423C16.1316 8.57233 16.2282 8.51475 16.306 8.43676C16.3399 8.40688 16.3669 8.37367 16.3906 8.33715C16.4143 8.30063 16.438 8.26411 16.4549 8.22426C16.4718 8.1811 16.4854 8.14126 16.4921 8.09809C16.5023 8.05493 16.5057 8.01177 16.5057 7.9686C16.5057 7.92544 16.5023 7.88228 16.4921 7.83911C16.4854 7.79595 16.4718 7.75611 16.4549 7.71626ZM17.8085 9.04436C17.7915 9.0012 17.7679 8.96468 17.7442 8.92816C17.7205 8.89163 17.6934 8.85843 17.6596 8.82855C17.4092 8.57953 16.9557 8.57953 16.7053 8.82855C16.6258 8.90495 16.5672 8.99969 16.5346 9.1041C16.5021 9.20851 16.4968 9.31925 16.5192 9.42619C16.526 9.46936 16.5395 9.5092 16.5564 9.55236C16.5734 9.59221 16.5937 9.62873 16.6207 9.66525C16.6444 9.70177 16.6715 9.73498 16.7053 9.76486C16.7677 9.82678 16.842 9.87594 16.9239 9.90948C17.0058 9.94303 17.0937 9.96031 17.1825 9.96031C17.2712 9.96031 17.3591 9.94303 17.441 9.90948C17.5229 9.87594 17.5972 9.82678 17.6596 9.76486C17.6934 9.73498 17.7205 9.70177 17.7442 9.66525C17.7679 9.62873 17.7915 9.59221 17.8085 9.55236C17.8254 9.5092 17.8389 9.46936 17.8457 9.42619C17.8558 9.38303 17.8592 9.33987 17.8592 9.2967C17.8592 9.25354 17.8558 9.21038 17.8457 9.16721C17.8389 9.12405 17.8254 9.08421 17.8085 9.04436ZM15.1657 22.7072C15.1724 22.7504 15.186 22.7935 15.2029 22.8334C15.2198 22.8732 15.2401 22.9097 15.2638 22.9463C15.2909 22.9828 15.3179 23.016 15.3518 23.0459C15.4142 23.1078 15.4885 23.1569 15.5704 23.1905C15.6523 23.224 15.7401 23.2413 15.8289 23.2413C15.9176 23.2413 16.0055 23.224 16.0874 23.1905C16.1693 23.1569 16.2436 23.1078 16.306 23.0459C16.3399 23.016 16.3669 22.9828 16.3906 22.9463C16.4177 22.9097 16.438 22.8732 16.4549 22.8334C16.4718 22.7935 16.4854 22.7504 16.4921 22.7072C16.5023 22.664 16.5057 22.6209 16.5057 22.5777C16.5057 22.5345 16.5023 22.4914 16.4921 22.4482C16.4854 22.4051 16.4718 22.3619 16.4549 22.3221C16.438 22.2822 16.4143 22.2457 16.3906 22.2092C16.3669 22.1726 16.3399 22.1394 16.306 22.1096C16.2756 22.0764 16.2417 22.0498 16.2045 22.0265C16.1673 22.0033 16.1301 21.9801 16.0861 21.9635C15.9626 21.9149 15.8275 21.9022 15.6969 21.9269C15.6529 21.9336 15.6089 21.9469 15.5683 21.9635C15.5277 21.9801 15.4905 22.0033 15.4533 22.0265C15.4161 22.0498 15.3822 22.0764 15.3518 22.1096C15.3179 22.1394 15.2909 22.1726 15.2672 22.2092C15.2401 22.2457 15.2198 22.2822 15.2029 22.3221C15.186 22.3619 15.1724 22.4051 15.1657 22.4482C15.1555 22.4914 15.1521 22.5345 15.1521 22.5777C15.1521 22.6209 15.1555 22.664 15.1657 22.7072ZM15.3518 20.3897C15.3822 20.4229 15.4161 20.4494 15.4533 20.4727C15.4905 20.4992 15.5277 20.5192 15.5683 20.5358C15.6089 20.5524 15.6529 20.5656 15.6969 20.5723C15.8059 20.5942 15.9188 20.589 16.0252 20.5571C16.1316 20.5252 16.2282 20.4677 16.306 20.3897C16.4346 20.2668 16.5057 20.0975 16.5057 19.9215C16.5057 19.7455 16.4346 19.5762 16.306 19.4534C16.2756 19.4202 16.2417 19.3936 16.2045 19.3703C16.1673 19.3471 16.1301 19.3239 16.0861 19.3073C16.0455 19.2907 16.0049 19.2774 15.9609 19.2707C15.7409 19.2276 15.5074 19.2973 15.3518 19.4534C15.2232 19.5762 15.1521 19.7455 15.1521 19.9215C15.1521 20.0975 15.2232 20.2668 15.3518 20.3897ZM15.8289 17.9294C16.0082 17.9294 16.1774 17.8596 16.306 17.7335C16.4346 17.6106 16.5057 17.4413 16.5057 17.2653C16.5057 17.0893 16.4346 16.92 16.306 16.7972C16.1504 16.6411 15.9169 16.5714 15.6969 16.6145C15.6529 16.6212 15.6089 16.6345 15.5683 16.6511C15.5277 16.6677 15.4905 16.6909 15.4533 16.7141C15.4161 16.7374 15.3822 16.764 15.3518 16.7972C15.2887 16.8584 15.2386 16.9313 15.2044 17.0116C15.1702 17.092 15.1526 17.1782 15.1526 17.2653C15.1526 17.3524 15.1702 17.4386 15.2044 17.519C15.2386 17.5993 15.2887 17.6722 15.3518 17.7335C15.477 17.8596 15.6496 17.9294 15.8289 17.9294ZM16.5564 24.1615C16.5903 24.2412 16.641 24.3142 16.7053 24.374C16.7358 24.4072 16.7696 24.4337 16.8068 24.457C16.8441 24.4835 16.8813 24.5035 16.9219 24.5201C16.9625 24.5367 17.0065 24.5499 17.0505 24.5566C17.1821 24.5823 17.3186 24.5696 17.443 24.5201C17.5242 24.4869 17.5987 24.4371 17.6596 24.374C17.7239 24.3142 17.7746 24.2412 17.8085 24.1615C17.8423 24.0785 17.8592 23.9955 17.8592 23.9058C17.8592 23.7298 17.7882 23.5605 17.6596 23.4377C17.6291 23.4045 17.5953 23.3779 17.5581 23.3546C17.5208 23.3314 17.4836 23.3082 17.4396 23.2916C17.3162 23.243 17.1811 23.2303 17.0505 23.255C17.0065 23.2617 16.9625 23.275 16.9219 23.2916C16.8813 23.3082 16.8441 23.3314 16.8068 23.3546C16.7696 23.3779 16.7358 23.4045 16.7053 23.4377C16.6715 23.4675 16.6444 23.5007 16.6207 23.5373C16.5937 23.5738 16.5734 23.6103 16.5564 23.6502C16.5395 23.69 16.526 23.7332 16.5192 23.7763C16.493 23.9055 16.5059 24.0394 16.5564 24.1615ZM19.162 22.3221C19.1451 22.2822 19.1248 22.2457 19.0977 22.2092C19.074 22.1726 19.047 22.1394 19.0131 22.1096C18.9827 22.0764 18.9488 22.0498 18.9116 22.0265C18.8744 22.0033 18.8372 21.9801 18.7932 21.9635C18.7526 21.9469 18.712 21.9336 18.668 21.9269C18.448 21.8805 18.2145 21.9535 18.0555 22.1096C18.025 22.1394 17.998 22.1726 17.9743 22.2092C17.9472 22.2457 17.9269 22.2822 17.91 22.3221C17.8931 22.3619 17.8795 22.4051 17.8728 22.4482C17.8626 22.4914 17.8592 22.5345 17.8592 22.5777C17.8592 22.6209 17.8626 22.664 17.8728 22.7072C17.8795 22.7504 17.8931 22.7935 17.91 22.8334C17.9269 22.8732 17.9472 22.9097 17.9709 22.9463C17.998 22.9828 18.025 23.016 18.0555 23.0459C18.1198 23.109 18.1942 23.1588 18.2754 23.192C18.36 23.2252 18.4446 23.2418 18.536 23.2418C18.6274 23.2418 18.712 23.2252 18.7966 23.192C18.8778 23.1588 18.9522 23.109 19.0131 23.0459C19.047 23.016 19.074 22.9828 19.0977 22.9463C19.1248 22.9097 19.1451 22.8732 19.162 22.8334C19.1789 22.7935 19.1925 22.7504 19.1992 22.7072C19.2094 22.664 19.2128 22.6209 19.2128 22.5777C19.2128 22.5345 19.2094 22.4914 19.1992 22.4482C19.1925 22.4051 19.1789 22.3619 19.162 22.3221ZM19.4124 24.374C19.5376 24.5001 19.7102 24.5699 19.8896 24.5699C19.9809 24.5699 20.0655 24.5533 20.1501 24.5201C20.2313 24.4869 20.3058 24.4371 20.3667 24.374C20.431 24.3142 20.4817 24.2412 20.5156 24.1615C20.5494 24.0785 20.5663 23.9955 20.5663 23.9058C20.5663 23.7298 20.4953 23.5605 20.3667 23.4377C20.3362 23.4045 20.3024 23.3779 20.2652 23.3546C20.2279 23.3314 20.1907 23.3082 20.1467 23.2916C20.0233 23.243 19.8882 23.2303 19.7576 23.255C19.7136 23.2617 19.6696 23.275 19.629 23.2916C19.5884 23.3082 19.5512 23.3314 19.5139 23.3546C19.4767 23.3779 19.4429 23.4045 19.4124 23.4377C19.3786 23.4675 19.3515 23.5007 19.3278 23.5373C19.3008 23.5738 19.2805 23.6103 19.2635 23.6502C19.2466 23.69 19.2331 23.7332 19.2263 23.7763C19.2001 23.9055 19.213 24.0394 19.2635 24.1615C19.2974 24.2412 19.3481 24.3142 19.4124 24.374ZM21.8691 22.3221C21.8522 22.2822 21.8285 22.2457 21.8048 22.2092C21.7811 22.1726 21.7541 22.1394 21.7202 22.1096C21.6898 22.0764 21.6559 22.0498 21.6187 22.0265C21.5815 22.0033 21.5443 21.9801 21.5003 21.9635C21.3768 21.9149 21.2417 21.9022 21.1111 21.9269C21.0671 21.9336 21.0232 21.9469 20.9825 21.9635C20.9419 21.9801 20.9047 22.0033 20.8675 22.0265C20.8303 22.0498 20.7964 22.0764 20.766 22.1096C20.7321 22.1394 20.7051 22.1726 20.6814 22.2092C20.6543 22.2457 20.634 22.2822 20.6171 22.3221C20.6002 22.3619 20.5866 22.4051 20.5799 22.4482C20.5697 22.4914 20.5663 22.5345 20.5663 22.5777C20.5663 22.6209 20.5697 22.664 20.5799 22.7072C20.5866 22.7504 20.6002 22.7935 20.6171 22.8334C20.634 22.8732 20.6543 22.9097 20.678 22.9463C20.7051 22.9828 20.7321 23.016 20.766 23.0459C20.8269 23.109 20.9013 23.1588 20.9825 23.192C21.0671 23.2252 21.1517 23.2418 21.2431 23.2418C21.4225 23.2418 21.5916 23.172 21.7202 23.0459C21.7541 23.016 21.7811 22.9828 21.8048 22.9463C21.8319 22.9097 21.8522 22.8732 21.8691 22.8334C21.886 22.7935 21.8996 22.7504 21.9063 22.7072C21.9165 22.664 21.9199 22.6209 21.9199 22.5777C21.9199 22.5345 21.9165 22.4914 21.9063 22.4482C21.8996 22.4051 21.886 22.3619 21.8691 22.3221ZM22.1195 24.374C22.2447 24.5001 22.4173 24.5699 22.5967 24.5699C22.688 24.5699 22.7726 24.5533 22.8572 24.5201C22.9384 24.4869 23.0129 24.4371 23.0738 24.374C23.1381 24.3142 23.1888 24.2412 23.2227 24.1615C23.2565 24.0785 23.2734 23.9955 23.2734 23.9058C23.2734 23.7298 23.2024 23.5605 23.0738 23.4377C23.0433 23.4045 23.0095 23.3779 22.9723 23.3546C22.935 23.3314 22.8978 23.3082 22.8538 23.2916C22.7304 23.243 22.5953 23.2303 22.4647 23.255C22.4207 23.2617 22.3767 23.275 22.3361 23.2916C22.2955 23.3082 22.2583 23.3314 22.221 23.3546C22.1838 23.3779 22.15 23.4045 22.1195 23.4377C22.0857 23.4675 22.0586 23.5007 22.0349 23.5373C22.0079 23.5738 21.9876 23.6103 21.9706 23.6502C21.9537 23.69 21.9402 23.7332 21.9334 23.7763C21.9072 23.9055 21.9201 24.0394 21.9706 24.1615C22.0045 24.2412 22.0552 24.3142 22.1195 24.374ZM19.162 7.71294C19.1451 7.6731 19.1214 7.63658 19.0977 7.60006C19.074 7.56353 19.047 7.53033 19.0131 7.49713C18.7627 7.25143 18.3093 7.25143 18.0589 7.49713C18.025 7.53033 17.998 7.56353 17.9743 7.60006C17.9472 7.63658 17.9269 7.6731 17.91 7.71294C17.8931 7.75279 17.8795 7.79595 17.8728 7.83911C17.8626 7.88228 17.8592 7.92544 17.8592 7.9686C17.8592 8.01177 17.8626 8.05493 17.8728 8.09809C17.8795 8.14126 17.8931 8.1811 17.91 8.22426C17.9269 8.26411 17.9472 8.30063 17.9743 8.33715C18.0219 8.41068 18.0855 8.47302 18.1604 8.51976C18.1976 8.54633 18.2348 8.56625 18.2754 8.58285C18.3194 8.59945 18.36 8.61273 18.404 8.61937C18.448 8.62933 18.492 8.63265 18.536 8.63265C18.58 8.63265 18.624 8.62933 18.668 8.61937C18.712 8.61273 18.7526 8.59945 18.7932 8.58285C18.8372 8.56625 18.8744 8.54633 18.9116 8.51976C18.9488 8.49652 18.9827 8.46996 19.0131 8.44008C19.0921 8.36265 19.1505 8.2673 19.1829 8.16247C19.2154 8.05765 19.221 7.94658 19.1992 7.83911C19.1925 7.79595 19.1789 7.75611 19.162 7.71294ZM19.4124 9.76818C19.4429 9.79806 19.4767 9.82462 19.5139 9.84787C19.5512 9.87111 19.5884 9.89435 19.629 9.91095C19.6696 9.92755 19.7136 9.94083 19.7576 9.94747C19.8557 9.96673 19.9569 9.96439 20.054 9.9406C20.1511 9.91682 20.2416 9.87219 20.319 9.80993C20.3963 9.74768 20.4586 9.66935 20.5014 9.5806C20.5442 9.49184 20.5664 9.39488 20.5663 9.2967C20.5663 9.12073 20.4953 8.9514 20.3667 8.82855C20.211 8.6725 19.9775 8.60277 19.7576 8.64594C19.7136 8.65258 19.6696 8.66586 19.629 8.68246C19.5884 8.69906 19.5512 8.7223 19.5139 8.74554C19.4767 8.76878 19.4429 8.79535 19.4124 8.82855C19.2838 8.9514 19.2128 9.12073 19.2128 9.2967C19.2128 9.47268 19.2838 9.64201 19.4124 9.76818ZM19.5139 7.19166C19.5512 7.21491 19.5884 7.23815 19.629 7.25475C19.6696 7.27135 19.7136 7.28463 19.7576 7.29127C19.8666 7.31324 19.9794 7.30803 20.0859 7.27613C20.1923 7.24423 20.2888 7.18665 20.3667 7.10866C20.4953 6.98581 20.5663 6.81648 20.5663 6.6405C20.5663 6.46453 20.4953 6.2952 20.3667 6.17235C20.3362 6.13914 20.3024 6.11258 20.2652 6.08934C20.2279 6.0661 20.1907 6.04286 20.1501 6.02626C20.1061 6.00965 20.0655 5.99969 20.0215 5.98973C19.9335 5.97313 19.8456 5.97313 19.7576 5.98973C19.7136 5.99969 19.6696 6.00965 19.629 6.02626C19.5884 6.04286 19.5512 6.0661 19.5139 6.08934C19.4767 6.11258 19.4429 6.13914 19.4124 6.17235C19.2838 6.2952 19.2128 6.46453 19.2128 6.6405C19.2128 6.81648 19.2838 6.98581 19.4124 7.10866C19.4429 7.14186 19.4767 7.16842 19.5139 7.19166ZM17.8728 10.7543C17.8795 10.7975 17.8931 10.8373 17.91 10.8805C17.9269 10.9203 17.9472 10.9568 17.9743 10.9934C18.0219 11.0669 18.0855 11.1292 18.1604 11.176C18.1976 11.2025 18.2348 11.2224 18.2754 11.2391C18.3194 11.2557 18.36 11.2689 18.404 11.2756C18.448 11.2855 18.492 11.2889 18.536 11.2889C18.58 11.2889 18.624 11.2855 18.668 11.2756C18.712 11.2689 18.7526 11.2557 18.7932 11.2391C18.8372 11.2224 18.8744 11.2025 18.9116 11.176C18.9488 11.1527 18.9827 11.1262 19.0131 11.0963C19.0921 11.0189 19.1505 10.9235 19.1829 10.8187C19.2154 10.7138 19.221 10.6028 19.1992 10.4953C19.1925 10.4522 19.1789 10.409 19.162 10.3691C19.1451 10.3293 19.1214 10.2928 19.0977 10.2563C19.074 10.2197 19.047 10.1865 19.0131 10.1533C18.7627 9.90763 18.3093 9.90763 18.0589 10.1533C18.025 10.1865 17.998 10.2197 17.9743 10.2563C17.9472 10.2928 17.9269 10.3293 17.91 10.3691C17.8931 10.409 17.8795 10.4522 17.8728 10.4953C17.8626 10.5385 17.8592 10.5816 17.8592 10.6248C17.8592 10.668 17.8626 10.7111 17.8728 10.7543ZM10.7531 5.97645H9.39953C9.0273 5.97645 8.72275 6.27528 8.72275 6.6405C8.72275 7.00573 9.0273 7.30455 9.39953 7.30455H10.7531C11.1253 7.30455 11.4299 7.00573 11.4299 6.6405C11.4299 6.27528 11.1253 5.97645 10.7531 5.97645ZM10.7531 9.2967H6.69242C6.3202 9.2967 6.01565 9.59553 6.01565 9.96075C6.01565 10.326 6.3202 10.6248 6.69242 10.6248H10.7531C11.1253 10.6248 11.4299 10.326 11.4299 9.96075C11.4299 9.59553 11.1253 9.2967 10.7531 9.2967ZM10.7531 12.617H3.98532C3.61309 12.617 3.30854 12.9158 3.30854 13.281C3.30854 13.6462 3.61309 13.9451 3.98532 13.9451H10.7531C11.1253 13.9451 11.4299 13.6462 11.4299 13.281C11.4299 12.9158 11.1253 12.617 10.7531 12.617ZM10.7531 15.9372H1.27822C0.90599 15.9372 0.60144 16.236 0.60144 16.6013C0.60144 16.9665 0.90599 17.2653 1.27822 17.2653H10.7531C11.1253 17.2653 11.4299 16.9665 11.4299 16.6013C11.4299 16.236 11.1253 15.9372 10.7531 15.9372ZM10.7531 19.2575H3.98532C3.61309 19.2575 3.30854 19.5563 3.30854 19.9215C3.30854 20.2867 3.61309 20.5856 3.98532 20.5856H10.7531C11.1253 20.5856 11.4299 20.2867 11.4299 19.9215C11.4299 19.5563 11.1253 19.2575 10.7531 19.2575ZM10.7531 22.5777H6.69242C6.3202 22.5777 6.01565 22.8765 6.01565 23.2418C6.01565 23.607 6.3202 23.9058 6.69242 23.9058H10.7531C11.1253 23.9058 11.4299 23.607 11.4299 23.2418C11.4299 22.8765 11.1253 22.5777 10.7531 22.5777Z" fill="white"/>
</svg>
